<svg width="98" height="66" viewBox="0 0 98 66" fill="none" xmlns="http://www.w3.org/2000/svg">
<path d="M29.6273 61.8585C30.1731 62.0854 30.7499 62.2736 31.3577 62.4233C34.7179 63.2508 37.9707 63.3442 41.116 62.7036C44.2613 62.063 47.2686 60.8118 50.138 58.9502C50.2991 59.1471 50.6093 59.5904 51.0684 60.28C51.5648 61.0312 52.1045 61.8192 52.6876 62.6442C53.2584 63.5185 53.7609 64.245 54.195 64.8236C54.2606 64.9127 54.323 64.996 54.3824 65.0734L55.7398 64.9006C55.6681 64.6632 55.5348 64.3646 55.34 64.0049C54.9797 63.3396 54.5327 62.6006 53.9991 61.7879C53.4655 60.9751 52.9444 60.2178 52.4358 59.5161C51.9767 58.8265 51.654 58.3277 51.4678 58.0198C52.6744 57.1638 53.9912 56.073 55.4184 54.7472C56.7634 53.4621 58.0597 52.0963 59.3071 50.6498V46.8949C58.0385 48.7032 56.5971 50.42 54.983 52.0456C53.3224 53.6807 51.7596 55.0255 50.2945 56.0799C48.5933 53.1975 47.3361 50.2149 46.5229 47.132C45.7218 43.9996 45.2907 40.7487 45.2294 37.3792C46.1768 36.5118 47.3955 35.6065 48.8857 34.6631C50.4375 33.6825 52.0147 32.9179 53.6174 32.3691C55.2817 31.7831 56.7562 31.6483 58.0411 31.9646C58.5045 32.0788 58.9265 32.2297 59.3071 32.4175V29.4678C57.8864 29.2233 56.3571 29.3375 54.7193 29.8101C52.8695 30.2981 51.0825 31.0635 49.3581 32.1064C47.6953 33.1121 46.3104 34.16 45.2033 35.2501C45.2103 33.7319 45.2853 32.2566 45.4284 30.8243C45.5836 29.3425 45.7081 27.8794 45.8017 26.4349C47.2797 25.541 49.1155 24.5779 51.3089 23.5457C53.5145 22.464 55.7445 21.2835 57.9988 20.0042C58.4474 19.7496 58.8835 19.4909 59.3071 19.2281V16.5805C58.5911 17.0282 57.8316 17.4608 57.0285 17.8784C55.0943 18.9221 53.1844 19.8669 51.2989 20.7129C49.4134 21.5589 47.8977 22.2864 46.752 22.8952C47.0698 22.0301 47.6151 20.8802 48.3876 19.4457C49.2096 18.0233 50.1547 16.5264 51.223 14.9551C52.3529 13.3464 53.5512 11.8857 54.8179 10.5729C56.1462 9.22274 57.4509 8.1813 58.7321 7.44852C58.8204 7.40068 58.9083 7.35504 58.9958 7.31161C58.7806 6.89653 58.1847 6.62794 57.2078 6.50583L55.1287 6.24122C54.3284 6.82167 53.5494 7.49648 52.7917 8.26565C51.2665 9.77691 49.8777 11.479 48.6254 13.372C47.373 15.2649 46.3119 17.1263 45.442 18.9562C44.6215 20.7982 44.0409 22.4111 43.7002 23.7947L43.4994 24.6101C40.7152 26.1258 37.8641 27.9133 34.946 29.9726C34.1682 30.5231 33.4143 31.0951 32.6843 31.6885V36.1084C33.7484 35.0778 34.8701 34.0928 36.0496 33.1532C38.4621 31.2315 40.7521 29.5941 42.9198 28.241C42.7402 29.8216 42.6287 31.4451 42.5852 33.1116C42.5539 34.7287 42.572 36.358 42.6395 37.9994C41.6929 39.0766 40.8762 40.2644 40.1896 41.5629C39.5151 42.8119 39.0015 44.153 38.6486 45.586C38.5756 45.8825 38.5151 46.2345 38.4672 46.642C38.4808 47.0123 38.6237 47.2833 38.8959 47.4552C39.3034 47.5031 39.5805 47.3355 39.7273 46.9523C39.9234 46.5813 40.052 46.2723 40.1128 46.0252C40.3927 44.8887 40.7223 43.8692 41.1018 42.9668C41.4812 42.0644 42.0519 41.1305 42.8138 40.165C43.0963 43.2745 43.7362 46.2099 44.7334 48.9713C45.78 51.7448 47.1597 54.4431 48.8723 57.0662C46.323 58.6921 43.5867 59.8004 40.6635 60.3908C37.7896 60.9934 34.8702 60.9297 31.9053 60.1996C31.4901 60.0973 31.095 59.9706 30.7201 59.8193C30.4033 60.5366 30.039 61.2164 29.6273 61.8585Z" fill="#FDF8F3"/>
<path d="M88.2204 22.5369H90.606V43.9116H88.2204L86.5982 37.1365C86.4074 36.3732 86.1847 35.8324 85.9303 35.5144C85.7394 35.1327 85.3259 34.91 84.6898 34.8464C84.0536 34.7192 82.9722 34.6556 81.4454 34.6556H68.277V57.4616C68.277 59.6881 68.3725 61.0241 68.5633 61.4694C68.7542 61.8511 69.3585 62.0737 70.3764 62.1373L77.5331 62.6144V65H54.727V62.6144L59.9753 62.1373C60.9931 62.0101 61.5975 61.7556 61.7883 61.3739C61.9791 60.9923 62.0746 59.6881 62.0746 57.4616V7.65089C62.0746 5.42436 61.9791 4.12024 61.7883 3.73855C61.5975 3.29325 60.9931 3.03878 59.9753 2.97517L54.727 2.49806V0.112488H97.2856V15.0939H94.9L92.3236 5.45617C92.0691 4.37471 91.6875 3.70674 91.1785 3.45228C90.7332 3.13421 89.3973 2.97517 87.1708 2.97517H68.277V31.7929H81.4454C82.9722 31.7929 84.0536 31.7611 84.6898 31.6974C85.3259 31.5702 85.7394 31.3476 85.9303 31.0295C86.1847 30.6478 86.4074 30.0753 86.5982 29.3119L88.2204 22.5369Z" fill="#FDF8F3"/>
<path d="M17.4165 2.49806V0.112488H38.3141V2.49806L33.0658 2.97517C32.048 3.03878 31.4436 3.29325 31.2528 3.73855C31.062 4.12024 30.9665 5.42436 30.9665 7.65089V45.7246C30.9665 49.0962 30.4894 52.3406 29.5352 55.4577C28.581 58.5749 26.927 61.1195 24.5732 63.0916C22.2831 65 19.0705 65.9542 14.9355 65.9542C12.8362 65.9542 10.7369 65.5725 8.63759 64.8092C6.53829 64.0458 4.75706 62.7099 3.29391 60.8014C1.83076 58.8293 0.940146 56.1257 0.62207 52.6905L5.39321 51.2591C5.52044 54.5671 6.06117 57.0799 7.0154 58.7975C7.96963 60.4515 9.14651 61.5966 10.546 62.2327C11.9456 62.8053 13.3451 63.0916 14.7446 63.0916C16.7803 63.0916 18.5298 62.5826 19.9929 61.5648C21.5197 60.5469 22.6966 58.7657 23.5235 56.2211C24.3505 53.6765 24.764 50.1777 24.764 45.7246V7.65089C24.764 5.42436 24.6686 4.12024 24.4778 3.73855C24.2869 3.29325 23.6826 3.03878 22.6647 2.97517L17.4165 2.49806Z" fill="#FDF8F3"/>
</svg>
