<svg width="158" height="294" viewBox="0 0 158 294" fill="none" xmlns="http://www.w3.org/2000/svg">
<path d="M122.191 287.25V293.5H63.6913V287.25L77.4413 286C80.108 285.667 81.6913 285 82.1913 284C82.6913 283 82.9413 279.583 82.9413 273.75V191.5C82.9413 185.667 82.6913 182.25 82.1913 181.25C81.858 180.083 80.2747 179.417 77.4413 179.25L63.6913 178V171.75H82.9413V150.75C82.9413 142.917 84.0247 135.583 86.1913 128.75C88.358 121.917 92.1913 116.417 97.6913 112.25C103.358 108.083 111.191 106 121.191 106C134.191 106 143.775 109.667 149.941 117C156.275 124.333 158.525 133.583 156.691 144.75L142.441 147C143.941 136.167 142.941 127.917 139.441 122.25C135.941 116.417 129.858 113.5 121.191 113.5C116.191 113.5 111.941 114.5 108.441 116.5C105.108 118.333 102.525 121.75 100.691 126.75C98.858 131.75 97.9413 138.917 97.9413 148.25V171.75H139.191V179.25H97.9413V273.75C97.9413 279.583 98.1913 283.083 98.6913 284.25C99.1913 285.25 100.775 285.833 103.441 286L122.191 287.25Z"/>
<path d="M56.1913 23.25C53.0247 23.25 50.358 22.1667 48.1913 20C46.0247 17.8333 44.9413 15.0833 44.9413 11.75C44.9413 8.41666 46.0247 5.74999 48.1913 3.74999C50.358 1.58333 53.0247 0.5 56.1913 0.5C59.5247 0.5 62.2747 1.58333 64.4413 3.74999C66.608 5.74999 67.6913 8.41666 67.6913 11.75C67.6913 15.0833 66.608 17.8333 64.4413 20C62.2747 22.1667 59.5247 23.25 56.1913 23.25ZM29.6913 62V55.75H63.9413V193.5C63.9413 200.5 62.858 207 60.6913 213C58.5247 219 55.0247 223.833 50.1913 227.5C45.358 231.333 38.9413 233.25 30.9413 233.25C23.2747 233.25 16.7746 231.083 11.4413 226.75C5.94132 222.583 2.35798 215.417 0.691315 205.25L12.9413 202.25C13.608 211.083 15.4413 217.167 18.4413 220.5C21.2747 224 25.1913 225.75 30.1913 225.75C36.358 225.75 41.0247 223.583 44.1913 219.25C47.358 214.917 48.9413 206.333 48.9413 193.5V75.5C48.9413 69.6667 48.6913 66.25 48.1913 65.25C47.6913 64.0833 46.108 63.4167 43.4413 63.25L29.6913 62Z"/>
</svg>
